<?xml version="1.0" encoding="iso-8859-1"?>
<!-- Generator: Adobe Illustrator 19.0.0, SVG Export Plug-In . SVG Version: 6.00 Build 0)  -->
<svg version="1.1" id="Capa_1" xmlns="http://www.w3.org/2000/svg" xmlns:xlink="http://www.w3.org/1999/xlink" x="0px" y="0px"
	 viewBox="0 0 512 512" style="enable-background:new 0 0 512 512;" xml:space="preserve">
<path style="fill:#4CAF50;" d="M432,0H80c-8.832,0-16,7.168-16,16v480c0,8.832,7.168,16,16,16h352c8.832,0,16-7.168,16-16V16
	C448,7.168,440.832,0,432,0z"/>
<g>
	<rect x="64" y="240" style="fill:#FAFAFA;" width="384" height="32"/>
	<path style="fill:#FAFAFA;" d="M256,352c-52.928,0-96-43.072-96-96s43.072-96,96-96s96,43.072,96,96S308.928,352,256,352z M256,192
		c-35.296,0-64,28.704-64,64s28.704,64,64,64s64-28.704,64-64S291.296,192,256,192z"/>
	<path style="fill:#FAFAFA;" d="M304,96h-96c-8.832,0-16-7.168-16-16V0h32v64h64V0h32v80C320,88.832,312.832,96,304,96z"/>
	<path style="fill:#FAFAFA;" d="M320,512h-32v-64h-64v64h-32v-80c0-8.832,7.168-16,16-16h96c8.832,0,16,7.168,16,16V512z"/>
</g>
<g>
</g>
<g>
</g>
<g>
</g>
<g>
</g>
<g>
</g>
<g>
</g>
<g>
</g>
<g>
</g>
<g>
</g>
<g>
</g>
<g>
</g>
<g>
</g>
<g>
</g>
<g>
</g>
<g>
</g>
</svg>
